<svg width="140" height="32" viewBox="0 0 140 32" fill="none" xmlns="http://www.w3.org/2000/svg">
  <defs>
    <linearGradient id="logo-bg" x1="2" y1="2" x2="30" y2="30" gradientUnits="userSpaceOnUse">
      <stop offset="0%" stop-color="#40C4FF" />
      <stop offset="100%" stop-color="#0277BD" />
    </linearGradient>
    <linearGradient id="logo-dot" x1="0" y1="0" x2="1" y2="1">
      <stop offset="0%" stop-color="#FFCA28" />
      <stop offset="100%" stop-color="#E65100" />
    </linearGradient>
  </defs>
  <circle cx="16" cy="16" r="14" fill="url(#logo-bg)" />
  <path d="M12 21V11C12 9.5 13.5 8.5 15 9H18.5C21 9 22.5 10.5 22.5 12.5C22.5 14 21.5 15 20 15.5C21.5 16 22.5 17 22.5 18.5C22.5 20.5 21 21 18.5 21H12ZM15 14H18C19 14 19.5 13.5 19.5 12.5C19.5 11.5 19 11 18 11H15V14ZM15 19H18.5C19.5 19 20 18.5 20 17.5C20 16.5 19.5 16 18.5 16H15V19Z" fill="white" />
  <text x="36" y="23.5" font-family="'Inter', system-ui, sans-serif" font-weight="900" font-size="23" letter-spacing="-0.5" fill="white">BYNDIO</text>
  <circle cx="122" cy="18" r="3.5" fill="url(#logo-dot)" />
</svg>